<svg width="100" height="100" viewBox="0 0 100 100" fill="none" xmlns="http://www.w3.org/2000/svg">
<rect x="1.5" y="1.5" width="97" height="97" rx="48.5" fill="url(#paint0_linear)" stroke="#FA8E00" stroke-width="3"/>
<g clip-path="url(#clip0)">
<path d="M17.9873 57.0197L13 43.5351L17.5228 43.5592L21.0188 52.7982L24.4658 43.5592H30.0643L33.5358 52.7982L37.0074 43.5592H41.579L36.5955 56.8552L48.3754 43.2697H54.1206L62.9461 53.4737L67.1999 50L53.7783 39H60.5502L82.2351 56.7303H75.4143L70.5981 52.7741L65.7575 56.7303H59.9635L57.2743 53.4737H47.7887L50.1112 50.7961H54.9029L51.2602 46.5504L38.7676 60.9759H33.0224L36.4737 56.9956H30.5044L27.3017 48.3114L24.0258 57.0197H17.9873Z" fill="#1B1B1B"/>
<path d="M75.3409 43.5351L71.9916 46.261L75.4387 49.1316L82.2595 43.5351H75.3409Z" fill="#F78E1E"/>
<path d="M83.3069 43.7285H82.8248V43.4482H84.1372V43.7285H83.6556V44.9342H83.3069V43.7285ZM85.6955 44.9342L85.6931 44.0426L85.2501 44.7771H85.0931L84.6521 44.0617V44.9342H84.325V43.4482H84.6135L85.1768 44.3717L85.7322 43.4482H86.0183L86.0227 44.9342H85.6955Z" fill="black"/>
</g>
<defs>
<linearGradient id="paint0_linear" x1="50" y1="0" x2="50" y2="100" gradientUnits="userSpaceOnUse">
<stop stop-color="white"/>
<stop offset="1" stop-color="#FDE3C3"/>
</linearGradient>
<clipPath id="clip0">
<rect width="73" height="22" fill="white" transform="translate(13 39)"/>
</clipPath>
</defs>
</svg>
